<mxfile host="app.diagrams.net" modified="2022-07-18T10:33:48.089Z" agent="5.0 (Windows NT 10.0; Win64; x64) AppleWebKit/537.36 (KHTML, like Gecko) Chrome/103.0.0.0 Safari/537.36" etag="KY-8iiBIkCc9ajtJLJ8u" version="20.1.1" type="github">
  <diagram name="Page-1" id="58cdce13-f638-feb5-8d6f-7d28b1aa9fa0">
    <mxGraphModel dx="566" dy="306" grid="1" gridSize="10" guides="1" tooltips="1" connect="1" arrows="1" fold="1" page="1" pageScale="1" pageWidth="1100" pageHeight="850" background="none" math="0" shadow="0">
      <root>
        <mxCell id="0" />
        <mxCell id="1" parent="0" />
        <mxCell id="4hcqKiWqXQc5OQluCs9i-1" value="이용자&lt;br&gt;" style="shape=umlActor;verticalLabelPosition=bottom;verticalAlign=top;html=1;" vertex="1" parent="1">
          <mxGeometry x="60" y="135" width="30" height="60" as="geometry" />
        </mxCell>
        <mxCell id="4hcqKiWqXQc5OQluCs9i-2" value="게시판서비스" style="shape=umlFrame;whiteSpace=wrap;html=1;width=90;height=20;" vertex="1" parent="1">
          <mxGeometry x="190" y="50" width="500" height="420" as="geometry" />
        </mxCell>
        <mxCell id="4hcqKiWqXQc5OQluCs9i-15" style="rounded=0;orthogonalLoop=1;jettySize=auto;html=1;exitX=0;exitY=0.5;exitDx=0;exitDy=0;entryX=1;entryY=0.3333333333333333;entryDx=0;entryDy=0;entryPerimeter=0;endArrow=none;endFill=0;" edge="1" parent="1" source="4hcqKiWqXQc5OQluCs9i-3" target="4hcqKiWqXQc5OQluCs9i-1">
          <mxGeometry relative="1" as="geometry" />
        </mxCell>
        <mxCell id="4hcqKiWqXQc5OQluCs9i-3" value="회원 가입" style="rounded=1;whiteSpace=wrap;html=1;arcSize=40;fontColor=#000000;fillColor=#ffffc0;strokeColor=#ff0000;" vertex="1" parent="1">
          <mxGeometry x="220" y="150" width="100" height="30" as="geometry" />
        </mxCell>
        <mxCell id="4hcqKiWqXQc5OQluCs9i-16" style="edgeStyle=none;rounded=0;orthogonalLoop=1;jettySize=auto;html=1;exitX=0;exitY=0.5;exitDx=0;exitDy=0;endArrow=none;endFill=0;" edge="1" parent="1" source="4hcqKiWqXQc5OQluCs9i-5" target="4hcqKiWqXQc5OQluCs9i-1">
          <mxGeometry relative="1" as="geometry" />
        </mxCell>
        <mxCell id="4hcqKiWqXQc5OQluCs9i-23" style="edgeStyle=none;rounded=0;orthogonalLoop=1;jettySize=auto;html=1;exitX=0.75;exitY=0;exitDx=0;exitDy=0;dashed=1;endArrow=classic;endFill=1;" edge="1" parent="1" source="4hcqKiWqXQc5OQluCs9i-5" target="4hcqKiWqXQc5OQluCs9i-7">
          <mxGeometry relative="1" as="geometry" />
        </mxCell>
        <mxCell id="4hcqKiWqXQc5OQluCs9i-5" value="게시판 보기" style="rounded=1;whiteSpace=wrap;html=1;arcSize=40;fontColor=#000000;fillColor=#ffffc0;strokeColor=#ff0000;" vertex="1" parent="1">
          <mxGeometry x="220" y="245" width="90" height="30" as="geometry" />
        </mxCell>
        <mxCell id="4hcqKiWqXQc5OQluCs9i-18" style="edgeStyle=none;rounded=0;orthogonalLoop=1;jettySize=auto;html=1;exitX=0;exitY=0.5;exitDx=0;exitDy=0;endArrow=none;endFill=0;" edge="1" parent="1" source="4hcqKiWqXQc5OQluCs9i-6" target="4hcqKiWqXQc5OQluCs9i-1">
          <mxGeometry relative="1" as="geometry" />
        </mxCell>
        <mxCell id="4hcqKiWqXQc5OQluCs9i-24" style="edgeStyle=none;rounded=0;orthogonalLoop=1;jettySize=auto;html=1;exitX=0.75;exitY=0;exitDx=0;exitDy=0;entryX=0.5;entryY=1;entryDx=0;entryDy=0;dashed=1;endArrow=classic;endFill=1;" edge="1" parent="1" source="4hcqKiWqXQc5OQluCs9i-6" target="4hcqKiWqXQc5OQluCs9i-7">
          <mxGeometry relative="1" as="geometry" />
        </mxCell>
        <mxCell id="4hcqKiWqXQc5OQluCs9i-6" value="게시글 보기" style="rounded=1;whiteSpace=wrap;html=1;arcSize=40;fontColor=#000000;fillColor=#ffffc0;strokeColor=#ff0000;" vertex="1" parent="1">
          <mxGeometry x="240" y="350" width="100" height="30" as="geometry" />
        </mxCell>
        <mxCell id="4hcqKiWqXQc5OQluCs9i-19" style="edgeStyle=none;rounded=0;orthogonalLoop=1;jettySize=auto;html=1;exitX=0;exitY=0.5;exitDx=0;exitDy=0;entryX=0.654;entryY=0.247;entryDx=0;entryDy=0;entryPerimeter=0;endArrow=none;endFill=0;" edge="1" parent="1" source="4hcqKiWqXQc5OQluCs9i-7" target="4hcqKiWqXQc5OQluCs9i-1">
          <mxGeometry relative="1" as="geometry" />
        </mxCell>
        <mxCell id="4hcqKiWqXQc5OQluCs9i-7" value="회원 로그인" style="rounded=1;whiteSpace=wrap;html=1;arcSize=40;fontColor=#000000;fillColor=#ffffc0;strokeColor=#ff0000;" vertex="1" parent="1">
          <mxGeometry x="390" y="70" width="100" height="30" as="geometry" />
        </mxCell>
        <mxCell id="4hcqKiWqXQc5OQluCs9i-20" value="&amp;lt;&amp;lt;include&amp;gt;&amp;gt;" style="edgeStyle=none;rounded=0;orthogonalLoop=1;jettySize=auto;html=1;entryX=0;entryY=0.5;entryDx=0;entryDy=0;endArrow=classic;endFill=1;dashed=1;exitX=1;exitY=0.5;exitDx=0;exitDy=0;" edge="1" parent="1" source="4hcqKiWqXQc5OQluCs9i-7" target="4hcqKiWqXQc5OQluCs9i-8">
          <mxGeometry relative="1" as="geometry">
            <mxPoint x="500" y="90" as="sourcePoint" />
          </mxGeometry>
        </mxCell>
        <mxCell id="4hcqKiWqXQc5OQluCs9i-8" value="인증" style="rounded=1;whiteSpace=wrap;html=1;arcSize=40;fontColor=#000000;fillColor=#ffffc0;strokeColor=#ff0000;" vertex="1" parent="1">
          <mxGeometry x="580" y="70" width="100" height="30" as="geometry" />
        </mxCell>
        <mxCell id="4hcqKiWqXQc5OQluCs9i-21" value="&amp;lt;&amp;lt; extend&amp;gt;&amp;gt;" style="edgeStyle=none;rounded=0;orthogonalLoop=1;jettySize=auto;html=1;exitX=0;exitY=0.5;exitDx=0;exitDy=0;entryX=1;entryY=0.5;entryDx=0;entryDy=0;endArrow=classic;endFill=1;dashed=1;" edge="1" parent="1" source="4hcqKiWqXQc5OQluCs9i-9" target="4hcqKiWqXQc5OQluCs9i-7">
          <mxGeometry relative="1" as="geometry" />
        </mxCell>
        <mxCell id="4hcqKiWqXQc5OQluCs9i-9" value="로그인 실패" style="rounded=1;whiteSpace=wrap;html=1;arcSize=40;fontColor=#000000;fillColor=#ffffc0;strokeColor=#ff0000;" vertex="1" parent="1">
          <mxGeometry x="580" y="170" width="100" height="30" as="geometry" />
        </mxCell>
        <mxCell id="4hcqKiWqXQc5OQluCs9i-25" style="edgeStyle=none;rounded=0;orthogonalLoop=1;jettySize=auto;html=1;exitX=0;exitY=0.5;exitDx=0;exitDy=0;dashed=1;endArrow=classic;endFill=1;" edge="1" parent="1" source="4hcqKiWqXQc5OQluCs9i-10" target="4hcqKiWqXQc5OQluCs9i-5">
          <mxGeometry relative="1" as="geometry" />
        </mxCell>
        <mxCell id="4hcqKiWqXQc5OQluCs9i-10" value="게시판 정렬" style="rounded=1;whiteSpace=wrap;html=1;arcSize=40;fontColor=#000000;fillColor=#ffffc0;strokeColor=#ff0000;" vertex="1" parent="1">
          <mxGeometry x="440" y="230" width="100" height="30" as="geometry" />
        </mxCell>
        <mxCell id="4hcqKiWqXQc5OQluCs9i-26" style="edgeStyle=none;rounded=0;orthogonalLoop=1;jettySize=auto;html=1;exitX=0;exitY=0.25;exitDx=0;exitDy=0;dashed=1;endArrow=classic;endFill=1;" edge="1" parent="1" source="4hcqKiWqXQc5OQluCs9i-11">
          <mxGeometry relative="1" as="geometry">
            <mxPoint x="310" y="260" as="targetPoint" />
          </mxGeometry>
        </mxCell>
        <mxCell id="4hcqKiWqXQc5OQluCs9i-11" value="게시판 검색" style="rounded=1;whiteSpace=wrap;html=1;arcSize=40;fontColor=#000000;fillColor=#ffffc0;strokeColor=#ff0000;" vertex="1" parent="1">
          <mxGeometry x="440" y="280" width="100" height="30" as="geometry" />
        </mxCell>
        <mxCell id="4hcqKiWqXQc5OQluCs9i-27" style="edgeStyle=none;rounded=0;orthogonalLoop=1;jettySize=auto;html=1;exitX=0;exitY=0.5;exitDx=0;exitDy=0;dashed=1;endArrow=classic;endFill=1;" edge="1" parent="1" source="4hcqKiWqXQc5OQluCs9i-12" target="4hcqKiWqXQc5OQluCs9i-6">
          <mxGeometry relative="1" as="geometry" />
        </mxCell>
        <mxCell id="4hcqKiWqXQc5OQluCs9i-12" value="게시글 CRUD" style="rounded=1;whiteSpace=wrap;html=1;arcSize=40;fontColor=#000000;fillColor=#ffffc0;strokeColor=#ff0000;" vertex="1" parent="1">
          <mxGeometry x="440" y="330" width="100" height="30" as="geometry" />
        </mxCell>
        <mxCell id="4hcqKiWqXQc5OQluCs9i-28" style="edgeStyle=none;rounded=0;orthogonalLoop=1;jettySize=auto;html=1;exitX=0;exitY=0.5;exitDx=0;exitDy=0;dashed=1;endArrow=classic;endFill=1;" edge="1" parent="1" source="4hcqKiWqXQc5OQluCs9i-14">
          <mxGeometry relative="1" as="geometry">
            <mxPoint x="340" y="360" as="targetPoint" />
          </mxGeometry>
        </mxCell>
        <mxCell id="4hcqKiWqXQc5OQluCs9i-14" value="댓글 보기,쓰기, 수정, 삭제" style="rounded=1;whiteSpace=wrap;html=1;arcSize=40;fontColor=#000000;fillColor=#ffffc0;strokeColor=#ff0000;" vertex="1" parent="1">
          <mxGeometry x="390" y="420" width="100" height="30" as="geometry" />
        </mxCell>
      </root>
    </mxGraphModel>
  </diagram>
</mxfile>
